# xmcd
#
# Track frame offsets:
#	151
#	25179
#	46963
#	68088
#	86435
#	102900
#	121052
#	142354
#	159288
#	175199
#	190384
#
# Disc length: 2810 seconds
#
# Revision: 1
# Processed by: cddbd v1.5.1PL0 Copyright (c) Steve Scherf et al.
# Submitted via: audiograbber 1.83.01
#
DISCID=8e0af80b
DTITLE=Claudia Scott - Emanuel's Secret
DYEAR=1997
DGENRE=
TTITLE0=The Belle Of Singapore
TTITLE1=Before The Eyes Of God
TTITLE2=Emanuel's Secret
TTITLE3=Dear Andrew
TTITLE4=Addiction
TTITLE5=Where The Rivers Run..
TTITLE6=Rosy Turned Grey
TTITLE7=Wasn't It Enough?
TTITLE8=Blood On The Moon
TTITLE9=City Of Violence
TTITLE10=Ikke Oppgitt
EXTD=
EXTT0=
EXTT1=
EXTT2=
EXTT3=
EXTT4=
EXTT5=
EXTT6=
EXTT7=
EXTT8=
EXTT9=
EXTT10=
PLAYORDER=
